<svg xmlns="http://www.w3.org/2000/svg" xmlns:xlink="http://www.w3.org/1999/xlink" width="163" height="40">
  <use fill="url(#paint0_linear)" xlink:href="#path0_fill"/>
  <use fill="currentColor" transform="translate(11.1 6.5)" xlink:href="#path1_fill"/>
  <use fill="#FFF" transform="translate(11.1 6.5)" xlink:href="#path1_fill"/>
  <use fill="#222" transform="translate(45.3 4)" xlink:href="#path2_fill"/>
  <defs>
    <linearGradient id="paint0_linear" x2="1" gradientTransform="matrix(-23.1432 -24.5067 24.6301 -23.0272 20.528 45.236)" gradientUnits="userSpaceOnUse">
      <stop offset="0" stop-color="#F06"/>
      <stop offset=".392" stop-color="#F06"/>
      <stop offset=".602" stop-color="#FF6E00"/>
      <stop offset="1" stop-color="#FFEA00"/>
    </linearGradient>
    <path id="path0_fill" fill-rule="evenodd" d="M29.895 39.605c-4.176 2.399-22.623-6.555-27.65-15.217C-2.33 16.505.297 6.774 8.208 2.23 16.118-2.313 25.9.29 30.475 8.171c5.025 8.662 3.595 29.035-.58 31.434z"/>
    <path id="path1_fill" fill-rule="evenodd" d="M6.13 4.573h4.393c.88 0 1.605.68 1.605 1.565 0 .86-.765 1.502-1.605 1.502H6.13v9.026c0 1.845 1.17 2.36 2.558 2.296.885-.04 1.88-.246 2.648-.552 1.002-.4 2.144.184 2.223 1.323.06.86-.514 1.399-1.271 1.691-1.178.455-2.432.639-3.6.65-3.073.027-5.703-1.369-5.703-5.471V7.64H1.603C.765 7.64 0 7 0 6.139c0-.884.724-1.565 1.603-1.565h1.382V1.628C2.985.778 3.647 0 4.526 0c.92 0 1.605.721 1.605 1.628v2.945H6.13z"/>
    <path id="path2_fill" fill-rule="evenodd" d="M106.224 7.114c6.136 0 11.109 4.974 11.109 11.109 0 6.136-4.974 11.109-11.109 11.109-6.136 0-11.11-4.973-11.11-11.109 0-6.134 4.974-11.109 11.11-11.109zm-98.733.733h5.368c1.075 0 1.96.835 1.96 1.92 0 1.057-.936 1.845-1.96 1.845H7.491v11.083c0 2.265 1.43 2.896 3.124 2.818 1.082-.05 2.297-.302 3.235-.677 1.225-.49 2.62.226 2.716 1.624.074 1.057-.627 1.717-1.552 2.076-1.438.559-2.97.784-4.399.797-3.753.034-6.968-1.68-6.968-6.717V11.612H1.96C.935 11.612 0 10.824 0 9.768c0-1.086.885-1.921 1.96-1.921h1.687V4.229c0-1.043.808-1.998 1.883-1.998 1.124 0 1.96.886 1.96 1.998v3.618zm17.179.214c1.168-.592 3.116-.896 4.405-.937 1.547-.05 3.219.18 4.516.567 1.168.349 1.722 1.304 1.374 2.498-.287.989-1.251 1.4-2.336 1.194-1.173-.222-2.206-.448-3.391-.448-2.828 0-3.936.965-3.936 3.14v13.03c0 1.088-.812 1.998-1.921 1.998-1.09 0-1.922-.93-1.922-1.998V9.382c0-1.043.751-1.998 1.827-1.998.654-.001 1.157.359 1.384.677zm46.963 16.166L77.514 8.62c.3-.75.973-1.237 1.787-1.237 1.388 0 2.15 1.38 1.716 2.63L74.614 26.84c-.472 1.323-1.538 2.263-2.985 2.263-1.496 0-2.482-.947-2.984-2.292L62.353 10.01c-.467-1.246.339-2.626 1.717-2.626.934 0 1.546.524 1.873 1.375l5.69 15.469zM88.018 7.383c1.089 0 1.882.897 1.882 1.96v17.8c0 1.063-.793 1.96-1.883 1.96a1.94 1.94 0 0 1-1.96-1.96v-17.8c0-1.08.881-1.96 1.96-1.96zm-2.382-5.039C85.636 1.03 86.714 0 88.018 0c1.316 0 2.305 1.04 2.305 2.344 0 1.318-.966 2.382-2.305 2.382a2.364 2.364 0 0 1-2.382-2.382zM41.739 19.986c.562 3.52 3.723 5.58 7.19 5.58 1.916 0 3.555-.575 5.213-1.48a2.238 2.238 0 0 1 1.07-.267c1.057 0 1.847.793 1.847 1.848 0 .652-.364 1.382-.942 1.704-2.143 1.285-4.715 1.962-7.206 1.962-6.368 0-11.28-4.749-11.28-11.15 0-6.097 4.984-11.069 11.068-11.069 5.585 0 10.517 4.524 10.517 10.179 0 1.344-1.082 2.693-2.482 2.693H41.74zm-.005-3.482h13.492c-.394-3.146-3.377-5.622-6.527-5.622-3.308-.001-6.558 2.24-6.965 5.622zm64.49-5.623c-4.09 0-7.096 3.323-7.096 7.343s3.006 7.343 7.096 7.343c4.089 0 7.095-3.322 7.095-7.343 0-4.02-3.006-7.343-7.095-7.343z"/>
  </defs>
</svg>
